<svg width="56.65" height="35" viewBox="0 0 56.65 35" xmlns="http://www.w3.org/2000/svg"><g id="svgGroup" stroke-linecap="round" fill-rule="evenodd" font-size="9pt" stroke="#000" stroke-width="0.25mm" fill="#000" style="stroke:#000;stroke-width:0.25mm;fill:#000"><path d="M 34.75 35 L 31.55 35 L 31.55 0 L 34.75 0 L 34.75 15.8 L 35.35 15.8 L 51.55 0 L 56.05 0 L 37.95 17.3 L 56.65 35 L 52.1 35 L 35.35 18.9 L 34.75 18.9 L 34.75 35 Z M 3.2 35 L 0 35 L 0 0 L 13.7 0 Q 16.95 0 19.425 1.1 Q 21.9 2.2 23.325 4.275 Q 24.75 6.35 24.75 9.3 L 24.75 9.8 Q 24.75 13.35 23.05 15.375 Q 21.35 17.4 19.05 18.05 L 19.05 18.65 Q 20.8 18.7 22 19.75 Q 23.2 20.8 23.2 23.1 L 23.2 35 L 20 35 L 20 23.45 Q 20 21.85 19.125 21 Q 18.25 20.15 16.5 20.15 L 3.2 20.15 L 3.2 35 Z M 3.2 2.9 L 13.4 2.9 Q 17.4 2.9 19.475 4.725 Q 21.55 6.55 21.55 9.95 L 21.55 10.2 Q 21.55 13.6 19.425 15.425 Q 17.3 17.25 13.4 17.25 L 3.2 17.25 L 3.2 2.9 Z" vector-effect="non-scaling-stroke"/></g></svg>